<?xml version="1.0" standalone="no"?>
<!DOCTYPE svg PUBLIC "-//W3C//DTD SVG 20010904//EN"
 "http://www.w3.org/TR/2001/REC-SVG-20010904/DTD/svg10.dtd">
<svg version="1.0" xmlns="http://www.w3.org/2000/svg"
 width="512.000000pt" height="512.000000pt" viewBox="0 0 512.000000 512.000000"
 preserveAspectRatio="xMidYMid meet">
<metadata>
Created by potrace 1.14, written by Peter Selinger 2001-2017
</metadata>
<g transform="translate(0.000000,512.000000) scale(0.100000,-0.100000)"
fill="#000000" stroke="none">
<path d="M2345 5016 c-99 -58 -202 -117 -230 -131 -27 -15 -61 -35 -75 -44
-14 -10 -123 -73 -243 -142 -268 -153 -241 -137 -482 -277 -427 -247 -490
-284 -505 -298 -12 -12 -14 -125 -12 -842 2 -455 4 -1147 5 -1538 2 -558 5
-715 15 -727 12 -14 79 -56 182 -115 19 -10 76 -43 125 -72 50 -29 108 -62
130 -75 22 -12 119 -69 215 -125 96 -56 193 -113 215 -125 22 -13 225 -131
452 -263 337 -196 417 -239 445 -237 21 1 107 45 248 127 118 68 284 164 368
212 84 49 157 97 163 108 7 14 10 152 10 418 l-2 397 464 267 c254 147 469
277 477 289 12 19 14 144 12 797 -5 1487 -4 1465 -26 1489 -11 12 -31 27 -45
34 -14 7 -307 177 -650 376 -344 200 -634 368 -645 375 -12 6 -28 16 -36 22
-8 6 -40 25 -70 41 -30 17 -107 60 -169 97 -63 36 -124 66 -135 66 -12 0 -102
-47 -201 -104z"/>
</g>
</svg>
